<mxfile host="app.diagrams.net" modified="2023-11-28T10:05:29.285Z" agent="Mozilla/5.0 (Windows NT 10.0; Win64; x64) AppleWebKit/537.36 (KHTML, like Gecko) Chrome/119.0.0.0 Safari/537.36 Edg/119.0.0.0" etag="Jdq8VXuD9Qk22NIf7pa2" version="22.1.4" type="github">
  <diagram name="第 1 页" id="glwmrZvW_cPcXZDuryvU">
    <mxGraphModel dx="996" dy="1396" grid="1" gridSize="10" guides="1" tooltips="1" connect="1" arrows="1" fold="1" page="1" pageScale="1" pageWidth="1169" pageHeight="827" math="0" shadow="0">
      <root>
        <mxCell id="0" />
        <mxCell id="1" parent="0" />
        <mxCell id="5uU7WOAQapwXrngMiJ4O-1" value="&#xa;&#xa;&#xa;&lt;p class=&quot;MsoNormal&quot;&gt;&lt;span style=&quot;font-size:12.0pt;font-family:黑体&quot; lang=&quot;EN-US&quot;&gt;Medical&#xa;Records Management&lt;/span&gt;&lt;/p&gt;&#xa;&#xa;&#xa;&#xa;&#xa;&#xa;" style="shape=umlFrame;whiteSpace=wrap;html=1;pointerEvents=0;recursiveResize=0;container=1;collapsible=0;width=160;" parent="1" vertex="1">
          <mxGeometry x="110" y="80" width="840" height="740" as="geometry" />
        </mxCell>
        <mxCell id="5uU7WOAQapwXrngMiJ4O-19" value="Login/Logout" style="ellipse;html=1;whiteSpace=wrap;fontFamily=Times New Roman;fontStyle=1;fontSize=14;" parent="5uU7WOAQapwXrngMiJ4O-1" vertex="1">
          <mxGeometry x="40" y="50" width="120" height="52.5" as="geometry" />
        </mxCell>
        <mxCell id="5uU7WOAQapwXrngMiJ4O-21" value="Prescription Verification" style="ellipse;html=1;whiteSpace=wrap;fontFamily=Times New Roman;fontStyle=1;fontSize=14;" parent="5uU7WOAQapwXrngMiJ4O-1" vertex="1">
          <mxGeometry x="370" y="37.5" width="120" height="52.5" as="geometry" />
        </mxCell>
        <mxCell id="5uU7WOAQapwXrngMiJ4O-22" value="Inventory Management" style="ellipse;html=1;whiteSpace=wrap;fontFamily=Times New Roman;fontStyle=1;fontSize=14;" parent="5uU7WOAQapwXrngMiJ4O-1" vertex="1">
          <mxGeometry x="700" y="117.5" width="120" height="52.5" as="geometry" />
        </mxCell>
        <mxCell id="5uU7WOAQapwXrngMiJ4O-23" value="Report MedicationInfo" style="ellipse;html=1;whiteSpace=wrap;fontStyle=1;fontSize=14;fontFamily=Times New Roman;" parent="5uU7WOAQapwXrngMiJ4O-1" vertex="1">
          <mxGeometry x="620" y="10" width="120" height="52.5" as="geometry" />
        </mxCell>
        <mxCell id="5uU7WOAQapwXrngMiJ4O-25" value="&lt;p class=&quot;MsoNormal&quot; style=&quot;font-size: 14px;&quot;&gt;Patient&lt;br style=&quot;font-size: 14px;&quot;&gt;Check-In and Check-Out&lt;/p&gt;" style="ellipse;html=1;whiteSpace=wrap;fontFamily=Times New Roman;fontStyle=1;fontSize=14;" parent="5uU7WOAQapwXrngMiJ4O-1" vertex="1">
          <mxGeometry x="540" y="480" width="120" height="52.5" as="geometry" />
        </mxCell>
        <mxCell id="5uU7WOAQapwXrngMiJ4O-26" value="Medication dispensing" style="ellipse;html=1;whiteSpace=wrap;fontFamily=Times New Roman;fontStyle=1;fontSize=14;" parent="5uU7WOAQapwXrngMiJ4O-1" vertex="1">
          <mxGeometry x="560" y="90" width="120" height="52.5" as="geometry" />
        </mxCell>
        <mxCell id="5uU7WOAQapwXrngMiJ4O-32" value="Register" style="ellipse;html=1;whiteSpace=wrap;fontFamily=Times New Roman;fontStyle=1;fontSize=14;" parent="5uU7WOAQapwXrngMiJ4O-1" vertex="1">
          <mxGeometry x="180" y="30" width="120" height="52.5" as="geometry" />
        </mxCell>
        <mxCell id="5uU7WOAQapwXrngMiJ4O-35" value="&lt;span style=&quot;color: rgb(0, 0, 0); font-size: 14px;&quot;&gt;Book an appointment&lt;/span&gt;" style="ellipse;html=1;whiteSpace=wrap;fontFamily=Times New Roman;fontStyle=1;fontSize=14;" parent="5uU7WOAQapwXrngMiJ4O-1" vertex="1">
          <mxGeometry x="30" y="110" width="120" height="52.5" as="geometry" />
        </mxCell>
        <mxCell id="5uU7WOAQapwXrngMiJ4O-36" value="&lt;p class=&quot;MsoNormal&quot; style=&quot;font-size: 14px;&quot;&gt;Manage&lt;br style=&quot;font-size: 14px;&quot;&gt;User Accounts&lt;/p&gt;" style="ellipse;html=1;whiteSpace=wrap;fontFamily=Times New Roman;fontStyle=1;fontSize=14;" parent="5uU7WOAQapwXrngMiJ4O-1" vertex="1">
          <mxGeometry x="610" y="682.5" width="120" height="52.5" as="geometry" />
        </mxCell>
        <mxCell id="5uU7WOAQapwXrngMiJ4O-37" value="Manage&lt;br style=&quot;font-size: 14px;&quot;&gt;Users" style="ellipse;html=1;whiteSpace=wrap;fontFamily=Times New Roman;fontStyle=1;fontSize=14;" parent="5uU7WOAQapwXrngMiJ4O-1" vertex="1">
          <mxGeometry x="230" y="630" width="120" height="52.5" as="geometry" />
        </mxCell>
        <mxCell id="5uU7WOAQapwXrngMiJ4O-38" value="&lt;p class=&quot;MsoNormal&quot; style=&quot;font-size: 14px;&quot;&gt;Patient&lt;br style=&quot;font-size: 14px;&quot;&gt;Information Access&lt;/p&gt;" style="ellipse;html=1;whiteSpace=wrap;fontFamily=Times New Roman;fontStyle=1;fontSize=14;" parent="5uU7WOAQapwXrngMiJ4O-1" vertex="1">
          <mxGeometry x="90" y="430" width="130" height="52.5" as="geometry" />
        </mxCell>
        <mxCell id="5uU7WOAQapwXrngMiJ4O-40" value="" style="ellipse;html=1;whiteSpace=wrap;" parent="5uU7WOAQapwXrngMiJ4O-1" vertex="1">
          <mxGeometry x="50" y="182.5" width="120" height="52.5" as="geometry" />
        </mxCell>
        <mxCell id="5uU7WOAQapwXrngMiJ4O-41" value="&lt;p class=&quot;MsoNormal&quot; style=&quot;font-size: 14px;&quot;&gt;Medical&lt;br style=&quot;font-size: 14px;&quot;&gt;Records Management&lt;/p&gt;" style="ellipse;html=1;whiteSpace=wrap;fontFamily=Times New Roman;fontStyle=1;fontSize=14;" parent="5uU7WOAQapwXrngMiJ4O-1" vertex="1">
          <mxGeometry x="430" y="520" width="120" height="52.5" as="geometry" />
        </mxCell>
        <mxCell id="5uU7WOAQapwXrngMiJ4O-42" value="Record Patient Symptoms" style="ellipse;html=1;whiteSpace=wrap;fontFamily=Times New Roman;fontStyle=1;fontSize=14;" parent="5uU7WOAQapwXrngMiJ4O-1" vertex="1">
          <mxGeometry x="95" y="662.5" width="120" height="52.5" as="geometry" />
        </mxCell>
        <mxCell id="5uU7WOAQapwXrngMiJ4O-43" value="&lt;p class=&quot;MsoNormal&quot; style=&quot;font-size: 14px;&quot;&gt;Receive&lt;br style=&quot;font-size: 14px;&quot;&gt;Payment&lt;/p&gt;" style="ellipse;html=1;whiteSpace=wrap;fontFamily=Times New Roman;fontStyle=1;fontSize=14;" parent="5uU7WOAQapwXrngMiJ4O-1" vertex="1">
          <mxGeometry x="550" y="583.75" width="120" height="52.5" as="geometry" />
        </mxCell>
        <mxCell id="5uU7WOAQapwXrngMiJ4O-44" value="Login" style="ellipse;html=1;whiteSpace=wrap;fontFamily=Times New Roman;fontStyle=1;fontSize=14;" parent="5uU7WOAQapwXrngMiJ4O-1" vertex="1">
          <mxGeometry x="210" y="540" width="120" height="52.5" as="geometry" />
        </mxCell>
        <mxCell id="5uU7WOAQapwXrngMiJ4O-45" value="&lt;p class=&quot;MsoNormal&quot; style=&quot;font-size: 14px;&quot;&gt;Staff&lt;br style=&quot;font-size: 14px;&quot;&gt;Management&lt;/p&gt;" style="ellipse;html=1;whiteSpace=wrap;fontFamily=Times New Roman;fontStyle=1;fontSize=14;" parent="5uU7WOAQapwXrngMiJ4O-1" vertex="1">
          <mxGeometry x="390" y="600" width="120" height="52.5" as="geometry" />
        </mxCell>
        <mxCell id="5uU7WOAQapwXrngMiJ4O-46" value="Patient Admission and Discharge" style="ellipse;html=1;whiteSpace=wrap;fontFamily=Times New Roman;fontStyle=1;fontSize=14;" parent="5uU7WOAQapwXrngMiJ4O-1" vertex="1">
          <mxGeometry x="100" y="600" width="130" height="52.5" as="geometry" />
        </mxCell>
        <mxCell id="5uU7WOAQapwXrngMiJ4O-47" value="&lt;p class=&quot;MsoNormal&quot; style=&quot;font-size: 14px;&quot;&gt;Schedule&lt;br style=&quot;font-size: 14px;&quot;&gt;Patient Appointments&lt;/p&gt;" style="ellipse;html=1;whiteSpace=wrap;fontFamily=Times New Roman;fontStyle=1;fontSize=14;" parent="5uU7WOAQapwXrngMiJ4O-1" vertex="1">
          <mxGeometry x="680" y="622.5" width="120" height="60" as="geometry" />
        </mxCell>
        <mxCell id="5uU7WOAQapwXrngMiJ4O-48" value="&lt;p class=&quot;MsoNormal&quot; style=&quot;font-size: 14px;&quot;&gt;Patient&lt;br style=&quot;font-size: 14px;&quot;&gt;Registration&lt;/p&gt;" style="ellipse;html=1;whiteSpace=wrap;fontFamily=Times New Roman;fontStyle=1;fontSize=14;" parent="5uU7WOAQapwXrngMiJ4O-1" vertex="1">
          <mxGeometry x="660" y="415" width="120" height="52.5" as="geometry" />
        </mxCell>
        <mxCell id="5uU7WOAQapwXrngMiJ4O-49" value="Set&lt;br style=&quot;font-size: 14px;&quot;&gt;Up Hospital Accounts" style="ellipse;html=1;whiteSpace=wrap;fontFamily=Times New Roman;fontStyle=1;fontSize=14;" parent="5uU7WOAQapwXrngMiJ4O-1" vertex="1">
          <mxGeometry x="460" y="670" width="120" height="52.5" as="geometry" />
        </mxCell>
        <mxCell id="5uU7WOAQapwXrngMiJ4O-39" value="Administer&lt;br style=&quot;font-size: 14px;&quot;&gt;Prescribed Treatment" style="ellipse;html=1;whiteSpace=wrap;fontStyle=1;fontSize=14;fontFamily=Times New Roman;" parent="5uU7WOAQapwXrngMiJ4O-1" vertex="1">
          <mxGeometry x="80" y="505" width="120" height="52.5" as="geometry" />
        </mxCell>
        <mxCell id="5uU7WOAQapwXrngMiJ4O-50" value="&amp;lt;&amp;lt;include&amp;gt;&amp;gt;" style="html=1;verticalAlign=bottom;labelBackgroundColor=none;endArrow=open;endFill=0;dashed=1;rounded=0;entryX=0.5;entryY=1;entryDx=0;entryDy=0;exitX=0;exitY=0.5;exitDx=0;exitDy=0;" parent="5uU7WOAQapwXrngMiJ4O-1" source="5uU7WOAQapwXrngMiJ4O-26" target="5uU7WOAQapwXrngMiJ4O-21" edge="1">
          <mxGeometry width="160" relative="1" as="geometry">
            <mxPoint x="320" y="190" as="sourcePoint" />
            <mxPoint x="480" y="190" as="targetPoint" />
          </mxGeometry>
        </mxCell>
        <mxCell id="lohgueNxmUTPQdyrS78p-11" value="" style="ellipse;html=1;whiteSpace=wrap;" vertex="1" parent="5uU7WOAQapwXrngMiJ4O-1">
          <mxGeometry x="190" y="235" width="120" height="52.5" as="geometry" />
        </mxCell>
        <mxCell id="lohgueNxmUTPQdyrS78p-12" value="" style="ellipse;html=1;whiteSpace=wrap;" vertex="1" parent="5uU7WOAQapwXrngMiJ4O-1">
          <mxGeometry x="270" y="182.5" width="120" height="52.5" as="geometry" />
        </mxCell>
        <mxCell id="lohgueNxmUTPQdyrS78p-13" value="" style="ellipse;html=1;whiteSpace=wrap;" vertex="1" parent="5uU7WOAQapwXrngMiJ4O-1">
          <mxGeometry x="415" y="220" width="120" height="52.5" as="geometry" />
        </mxCell>
        <mxCell id="lohgueNxmUTPQdyrS78p-14" value="" style="ellipse;html=1;whiteSpace=wrap;" vertex="1" parent="5uU7WOAQapwXrngMiJ4O-1">
          <mxGeometry x="220" y="333.5" width="120" height="52.5" as="geometry" />
        </mxCell>
        <mxCell id="lohgueNxmUTPQdyrS78p-15" value="" style="ellipse;html=1;whiteSpace=wrap;" vertex="1" parent="5uU7WOAQapwXrngMiJ4O-1">
          <mxGeometry x="570" y="230" width="120" height="52.5" as="geometry" />
        </mxCell>
        <mxCell id="lohgueNxmUTPQdyrS78p-16" value="&lt;p class=&quot;MsoNormal&quot; style=&quot;font-size: 14px;&quot;&gt;Update&lt;br style=&quot;font-size: 14px;&quot;&gt;Patient Information&lt;/p&gt;" style="ellipse;html=1;whiteSpace=wrap;fontFamily=Times New Roman;fontStyle=1;fontSize=14;" vertex="1" parent="5uU7WOAQapwXrngMiJ4O-1">
          <mxGeometry x="460" y="410" width="120" height="52.5" as="geometry" />
        </mxCell>
        <mxCell id="lohgueNxmUTPQdyrS78p-17" value="" style="ellipse;html=1;whiteSpace=wrap;" vertex="1" parent="5uU7WOAQapwXrngMiJ4O-1">
          <mxGeometry x="295" y="287.5" width="120" height="52.5" as="geometry" />
        </mxCell>
        <mxCell id="5uU7WOAQapwXrngMiJ4O-2" value="&lt;font size=&quot;1&quot; face=&quot;Times New Roman&quot;&gt;&lt;b style=&quot;font-size: 13px;&quot;&gt;Doctor&amp;nbsp;&lt;/b&gt;&lt;/font&gt;" style="shape=umlActor;verticalLabelPosition=bottom;verticalAlign=top;html=1;" parent="1" vertex="1">
          <mxGeometry x="30" y="390" width="30" height="60" as="geometry" />
        </mxCell>
        <mxCell id="5uU7WOAQapwXrngMiJ4O-4" value="&lt;font size=&quot;1&quot; face=&quot;Times New Roman&quot;&gt;&lt;b style=&quot;font-size: 13px;&quot;&gt;Registered Patient&lt;/b&gt;&lt;/font&gt;" style="shape=umlActor;verticalLabelPosition=bottom;verticalAlign=top;html=1;" parent="1" vertex="1">
          <mxGeometry x="40" y="160" width="30" height="60" as="geometry" />
        </mxCell>
        <mxCell id="5uU7WOAQapwXrngMiJ4O-6" value="&lt;font style=&quot;font-size: 13px;&quot; face=&quot;Times New Roman&quot;&gt;&lt;b&gt;Nurse&lt;/b&gt;&lt;/font&gt;" style="shape=umlActor;verticalLabelPosition=bottom;verticalAlign=top;html=1;" parent="1" vertex="1">
          <mxGeometry x="30" y="690" width="30" height="60" as="geometry" />
        </mxCell>
        <mxCell id="5uU7WOAQapwXrngMiJ4O-7" value="&lt;font size=&quot;1&quot; face=&quot;Times New Roman&quot;&gt;&lt;b style=&quot;font-size: 13px;&quot;&gt;Pharmacist&lt;/b&gt;&lt;/font&gt;" style="shape=umlActor;verticalLabelPosition=bottom;verticalAlign=top;html=1;" parent="1" vertex="1">
          <mxGeometry x="1000" y="137.5" width="30" height="60" as="geometry" />
        </mxCell>
        <mxCell id="5uU7WOAQapwXrngMiJ4O-8" value="&lt;b&gt;&lt;font face=&quot;Times New Roman&quot; style=&quot;font-size: 13px;&quot;&gt;Laboratory technician staff&lt;/font&gt;&lt;/b&gt;" style="shape=umlActor;verticalLabelPosition=bottom;verticalAlign=top;html=1;" parent="1" vertex="1">
          <mxGeometry x="1020" y="370" width="30" height="60" as="geometry" />
        </mxCell>
        <mxCell id="5uU7WOAQapwXrngMiJ4O-9" value="&lt;font size=&quot;1&quot; face=&quot;Times New Roman&quot;&gt;&lt;b style=&quot;font-size: 13px;&quot;&gt;Receptionist&lt;/b&gt;&lt;/font&gt;" style="shape=umlActor;verticalLabelPosition=bottom;verticalAlign=top;html=1;" parent="1" vertex="1">
          <mxGeometry x="1010" y="660" width="30" height="60" as="geometry" />
        </mxCell>
        <mxCell id="5uU7WOAQapwXrngMiJ4O-12" value="&lt;font size=&quot;1&quot; face=&quot;Times New Roman&quot;&gt;&lt;b style=&quot;font-size: 13px;&quot;&gt;Hospital Managers&lt;/b&gt;&lt;/font&gt;" style="shape=umlActor;verticalLabelPosition=bottom;verticalAlign=top;html=1;" parent="1" vertex="1">
          <mxGeometry x="430" y="850" width="30" height="60" as="geometry" />
        </mxCell>
        <mxCell id="5uU7WOAQapwXrngMiJ4O-13" value="&lt;b&gt;&lt;font face=&quot;Times New Roman&quot; style=&quot;font-size: 13px;&quot;&gt;System Operators&lt;/font&gt;&lt;/b&gt;" style="shape=umlActor;verticalLabelPosition=bottom;verticalAlign=top;html=1;" parent="1" vertex="1">
          <mxGeometry x="730" y="850" width="30" height="60" as="geometry" />
        </mxCell>
        <mxCell id="5uU7WOAQapwXrngMiJ4O-28" value="" style="endArrow=none;html=1;rounded=0;entryX=0;entryY=0.3333333333333333;entryDx=0;entryDy=0;entryPerimeter=0;exitX=1;exitY=0.5;exitDx=0;exitDy=0;" parent="1" source="5uU7WOAQapwXrngMiJ4O-23" target="5uU7WOAQapwXrngMiJ4O-7" edge="1">
          <mxGeometry relative="1" as="geometry">
            <mxPoint x="430" y="400" as="sourcePoint" />
            <mxPoint x="590" y="400" as="targetPoint" />
          </mxGeometry>
        </mxCell>
        <mxCell id="5uU7WOAQapwXrngMiJ4O-29" value="" style="endArrow=none;html=1;rounded=0;entryX=0;entryY=0.3333333333333333;entryDx=0;entryDy=0;entryPerimeter=0;exitX=1;exitY=0.5;exitDx=0;exitDy=0;" parent="1" source="5uU7WOAQapwXrngMiJ4O-26" target="5uU7WOAQapwXrngMiJ4O-7" edge="1">
          <mxGeometry relative="1" as="geometry">
            <mxPoint x="430" y="400" as="sourcePoint" />
            <mxPoint x="590" y="400" as="targetPoint" />
          </mxGeometry>
        </mxCell>
        <mxCell id="5uU7WOAQapwXrngMiJ4O-31" value="" style="endArrow=none;html=1;rounded=0;entryX=0;entryY=0.3333333333333333;entryDx=0;entryDy=0;entryPerimeter=0;" parent="1" source="5uU7WOAQapwXrngMiJ4O-22" target="5uU7WOAQapwXrngMiJ4O-7" edge="1">
          <mxGeometry relative="1" as="geometry">
            <mxPoint x="430" y="400" as="sourcePoint" />
            <mxPoint x="950" y="200" as="targetPoint" />
          </mxGeometry>
        </mxCell>
        <mxCell id="5uU7WOAQapwXrngMiJ4O-33" value="&lt;font size=&quot;1&quot; face=&quot;Times New Roman&quot;&gt;&lt;b style=&quot;font-size: 13px;&quot;&gt;Unregister Patient&lt;/b&gt;&lt;/font&gt;" style="shape=umlActor;verticalLabelPosition=bottom;verticalAlign=top;html=1;" parent="1" vertex="1">
          <mxGeometry x="320" y="-10" width="30" height="60" as="geometry" />
        </mxCell>
        <mxCell id="5uU7WOAQapwXrngMiJ4O-30" value="" style="endArrow=none;html=1;rounded=0;exitX=1;exitY=0.5;exitDx=0;exitDy=0;entryX=0;entryY=0.3333333333333333;entryDx=0;entryDy=0;entryPerimeter=0;" parent="1" source="5uU7WOAQapwXrngMiJ4O-21" target="5uU7WOAQapwXrngMiJ4O-7" edge="1">
          <mxGeometry relative="1" as="geometry">
            <mxPoint x="570" y="360" as="sourcePoint" />
            <mxPoint x="950" y="200" as="targetPoint" />
          </mxGeometry>
        </mxCell>
        <mxCell id="dQaGTVm2YOlZ0vhu-fjj-1" value="" style="endArrow=none;html=1;rounded=0;entryX=1;entryY=1;entryDx=0;entryDy=0;entryPerimeter=0;exitX=0.5;exitY=0;exitDx=0;exitDy=0;" parent="1" source="5uU7WOAQapwXrngMiJ4O-32" target="5uU7WOAQapwXrngMiJ4O-33" edge="1">
          <mxGeometry width="50" height="50" relative="1" as="geometry">
            <mxPoint x="480" y="320" as="sourcePoint" />
            <mxPoint x="530" y="270" as="targetPoint" />
          </mxGeometry>
        </mxCell>
        <mxCell id="dQaGTVm2YOlZ0vhu-fjj-2" value="" style="endArrow=none;html=1;rounded=0;exitX=1;exitY=0.3333333333333333;exitDx=0;exitDy=0;exitPerimeter=0;entryX=0;entryY=0.5;entryDx=0;entryDy=0;" parent="1" source="5uU7WOAQapwXrngMiJ4O-4" target="5uU7WOAQapwXrngMiJ4O-19" edge="1">
          <mxGeometry width="50" height="50" relative="1" as="geometry">
            <mxPoint x="480" y="410" as="sourcePoint" />
            <mxPoint x="530" y="360" as="targetPoint" />
          </mxGeometry>
        </mxCell>
        <mxCell id="lohgueNxmUTPQdyrS78p-2" value="" style="endArrow=none;html=1;rounded=0;exitX=1;exitY=0.3333333333333333;exitDx=0;exitDy=0;exitPerimeter=0;entryX=0;entryY=1;entryDx=0;entryDy=0;" edge="1" parent="1" source="5uU7WOAQapwXrngMiJ4O-6" target="5uU7WOAQapwXrngMiJ4O-38">
          <mxGeometry width="50" height="50" relative="1" as="geometry">
            <mxPoint x="480" y="680" as="sourcePoint" />
            <mxPoint x="530" y="630" as="targetPoint" />
          </mxGeometry>
        </mxCell>
        <mxCell id="lohgueNxmUTPQdyrS78p-3" value="" style="endArrow=none;html=1;rounded=0;exitX=1;exitY=0.3333333333333333;exitDx=0;exitDy=0;exitPerimeter=0;entryX=0;entryY=1;entryDx=0;entryDy=0;" edge="1" parent="1" source="5uU7WOAQapwXrngMiJ4O-6" target="5uU7WOAQapwXrngMiJ4O-39">
          <mxGeometry width="50" height="50" relative="1" as="geometry">
            <mxPoint x="70" y="720" as="sourcePoint" />
            <mxPoint x="159" y="585" as="targetPoint" />
          </mxGeometry>
        </mxCell>
        <mxCell id="lohgueNxmUTPQdyrS78p-4" value="" style="endArrow=none;html=1;rounded=0;entryX=0;entryY=0.5;entryDx=0;entryDy=0;exitX=1;exitY=0.3333333333333333;exitDx=0;exitDy=0;exitPerimeter=0;" edge="1" parent="1" source="5uU7WOAQapwXrngMiJ4O-6" target="5uU7WOAQapwXrngMiJ4O-44">
          <mxGeometry width="50" height="50" relative="1" as="geometry">
            <mxPoint x="60" y="710" as="sourcePoint" />
            <mxPoint x="169" y="595" as="targetPoint" />
          </mxGeometry>
        </mxCell>
        <mxCell id="lohgueNxmUTPQdyrS78p-5" value="" style="endArrow=none;html=1;rounded=0;exitX=1;exitY=0.3333333333333333;exitDx=0;exitDy=0;exitPerimeter=0;entryX=0;entryY=0.5;entryDx=0;entryDy=0;" edge="1" parent="1" source="5uU7WOAQapwXrngMiJ4O-6" target="5uU7WOAQapwXrngMiJ4O-46">
          <mxGeometry width="50" height="50" relative="1" as="geometry">
            <mxPoint x="90" y="740" as="sourcePoint" />
            <mxPoint x="179" y="605" as="targetPoint" />
          </mxGeometry>
        </mxCell>
        <mxCell id="lohgueNxmUTPQdyrS78p-6" value="" style="endArrow=none;html=1;rounded=0;exitX=1;exitY=0.3333333333333333;exitDx=0;exitDy=0;exitPerimeter=0;entryX=0;entryY=0.5;entryDx=0;entryDy=0;" edge="1" parent="1" source="5uU7WOAQapwXrngMiJ4O-6" target="5uU7WOAQapwXrngMiJ4O-42">
          <mxGeometry width="50" height="50" relative="1" as="geometry">
            <mxPoint x="100" y="750" as="sourcePoint" />
            <mxPoint x="189" y="615" as="targetPoint" />
          </mxGeometry>
        </mxCell>
        <mxCell id="lohgueNxmUTPQdyrS78p-7" value="" style="endArrow=none;html=1;rounded=0;exitX=0.5;exitY=0.5;exitDx=0;exitDy=0;exitPerimeter=0;entryX=0.5;entryY=1;entryDx=0;entryDy=0;" edge="1" parent="1" source="5uU7WOAQapwXrngMiJ4O-12" target="5uU7WOAQapwXrngMiJ4O-37">
          <mxGeometry width="50" height="50" relative="1" as="geometry">
            <mxPoint x="480" y="680" as="sourcePoint" />
            <mxPoint x="530" y="630" as="targetPoint" />
          </mxGeometry>
        </mxCell>
        <mxCell id="lohgueNxmUTPQdyrS78p-8" value="" style="endArrow=none;html=1;rounded=0;entryX=0.5;entryY=1;entryDx=0;entryDy=0;exitX=0.5;exitY=0.5;exitDx=0;exitDy=0;exitPerimeter=0;" edge="1" parent="1" source="5uU7WOAQapwXrngMiJ4O-12" target="5uU7WOAQapwXrngMiJ4O-45">
          <mxGeometry width="50" height="50" relative="1" as="geometry">
            <mxPoint x="480" y="680" as="sourcePoint" />
            <mxPoint x="530" y="630" as="targetPoint" />
          </mxGeometry>
        </mxCell>
        <mxCell id="lohgueNxmUTPQdyrS78p-9" value="" style="endArrow=none;html=1;rounded=0;entryX=0.5;entryY=0.5;entryDx=0;entryDy=0;entryPerimeter=0;exitX=0.5;exitY=1;exitDx=0;exitDy=0;" edge="1" parent="1" source="5uU7WOAQapwXrngMiJ4O-49" target="5uU7WOAQapwXrngMiJ4O-13">
          <mxGeometry width="50" height="50" relative="1" as="geometry">
            <mxPoint x="480" y="680" as="sourcePoint" />
            <mxPoint x="530" y="630" as="targetPoint" />
          </mxGeometry>
        </mxCell>
        <mxCell id="lohgueNxmUTPQdyrS78p-10" value="" style="endArrow=none;html=1;rounded=0;entryX=0.5;entryY=1;entryDx=0;entryDy=0;exitX=0.5;exitY=0.5;exitDx=0;exitDy=0;exitPerimeter=0;" edge="1" parent="1" source="5uU7WOAQapwXrngMiJ4O-13" target="5uU7WOAQapwXrngMiJ4O-36">
          <mxGeometry width="50" height="50" relative="1" as="geometry">
            <mxPoint x="480" y="680" as="sourcePoint" />
            <mxPoint x="530" y="630" as="targetPoint" />
          </mxGeometry>
        </mxCell>
        <mxCell id="lohgueNxmUTPQdyrS78p-22" value="" style="endArrow=none;html=1;rounded=0;entryX=0;entryY=0.3333333333333333;entryDx=0;entryDy=0;entryPerimeter=0;exitX=1;exitY=1;exitDx=0;exitDy=0;" edge="1" parent="1" source="5uU7WOAQapwXrngMiJ4O-48" target="5uU7WOAQapwXrngMiJ4O-9">
          <mxGeometry width="50" height="50" relative="1" as="geometry">
            <mxPoint x="590" y="580" as="sourcePoint" />
            <mxPoint x="640" y="530" as="targetPoint" />
          </mxGeometry>
        </mxCell>
        <mxCell id="lohgueNxmUTPQdyrS78p-23" value="" style="endArrow=none;html=1;rounded=0;entryX=0;entryY=0.3333333333333333;entryDx=0;entryDy=0;entryPerimeter=0;exitX=1;exitY=0.5;exitDx=0;exitDy=0;" edge="1" parent="1" source="lohgueNxmUTPQdyrS78p-16" target="5uU7WOAQapwXrngMiJ4O-9">
          <mxGeometry width="50" height="50" relative="1" as="geometry">
            <mxPoint x="903" y="521" as="sourcePoint" />
            <mxPoint x="1020" y="690" as="targetPoint" />
          </mxGeometry>
        </mxCell>
        <mxCell id="lohgueNxmUTPQdyrS78p-24" value="" style="endArrow=none;html=1;rounded=0;entryX=0;entryY=0.3333333333333333;entryDx=0;entryDy=0;entryPerimeter=0;exitX=1;exitY=0.5;exitDx=0;exitDy=0;" edge="1" parent="1" source="5uU7WOAQapwXrngMiJ4O-25" target="5uU7WOAQapwXrngMiJ4O-9">
          <mxGeometry width="50" height="50" relative="1" as="geometry">
            <mxPoint x="913" y="531" as="sourcePoint" />
            <mxPoint x="1030" y="700" as="targetPoint" />
          </mxGeometry>
        </mxCell>
        <mxCell id="lohgueNxmUTPQdyrS78p-25" value="" style="endArrow=none;html=1;rounded=0;entryX=0;entryY=0.3333333333333333;entryDx=0;entryDy=0;entryPerimeter=0;exitX=1;exitY=0.5;exitDx=0;exitDy=0;" edge="1" parent="1" source="5uU7WOAQapwXrngMiJ4O-41" target="5uU7WOAQapwXrngMiJ4O-9">
          <mxGeometry width="50" height="50" relative="1" as="geometry">
            <mxPoint x="923" y="541" as="sourcePoint" />
            <mxPoint x="1040" y="710" as="targetPoint" />
          </mxGeometry>
        </mxCell>
        <mxCell id="lohgueNxmUTPQdyrS78p-26" value="" style="endArrow=none;html=1;rounded=0;entryX=0;entryY=0.3333333333333333;entryDx=0;entryDy=0;entryPerimeter=0;exitX=1;exitY=0.5;exitDx=0;exitDy=0;" edge="1" parent="1" source="5uU7WOAQapwXrngMiJ4O-43" target="5uU7WOAQapwXrngMiJ4O-9">
          <mxGeometry width="50" height="50" relative="1" as="geometry">
            <mxPoint x="933" y="551" as="sourcePoint" />
            <mxPoint x="1050" y="720" as="targetPoint" />
          </mxGeometry>
        </mxCell>
        <mxCell id="lohgueNxmUTPQdyrS78p-27" value="" style="endArrow=none;html=1;rounded=0;entryX=0;entryY=0.3333333333333333;entryDx=0;entryDy=0;entryPerimeter=0;exitX=1;exitY=0.5;exitDx=0;exitDy=0;" edge="1" parent="1" source="5uU7WOAQapwXrngMiJ4O-47" target="5uU7WOAQapwXrngMiJ4O-9">
          <mxGeometry width="50" height="50" relative="1" as="geometry">
            <mxPoint x="943" y="561" as="sourcePoint" />
            <mxPoint x="1060" y="730" as="targetPoint" />
          </mxGeometry>
        </mxCell>
      </root>
    </mxGraphModel>
  </diagram>
</mxfile>
